<mxfile host="app.diagrams.net" modified="2022-01-19T02:49:03.031Z" agent="5.0 (Windows NT 10.0; Win64; x64) AppleWebKit/537.36 (KHTML, like Gecko) Chrome/92.0.4515.131 Safari/537.36" etag="8I1OjB95jexIM6K4n0eM" version="16.0.3" type="github">
  <diagram id="XPM2xCIcivON5SYdAEGS" name="Page-1">
    <mxGraphModel dx="861" dy="432" grid="1" gridSize="10" guides="1" tooltips="1" connect="1" arrows="1" fold="1" page="1" pageScale="1" pageWidth="827" pageHeight="1169" math="1" shadow="0">
      <root>
        <mxCell id="0" />
        <mxCell id="1" parent="0" />
        <mxCell id="bCQrRqBFHOmrgxokbxgY-1" value="&lt;font style=&quot;font-size: 24px&quot;&gt;$$x_1$$&lt;/font&gt;" style="ellipse;whiteSpace=wrap;html=1;aspect=fixed;strokeWidth=2;" vertex="1" parent="1">
          <mxGeometry x="240" y="190" width="50" height="50" as="geometry" />
        </mxCell>
        <mxCell id="bCQrRqBFHOmrgxokbxgY-3" value="&lt;font style=&quot;font-size: 24px&quot;&gt;$$v$$&lt;/font&gt;" style="ellipse;whiteSpace=wrap;html=1;aspect=fixed;strokeWidth=2;" vertex="1" parent="1">
          <mxGeometry x="360" y="280" width="50" height="50" as="geometry" />
        </mxCell>
        <mxCell id="bCQrRqBFHOmrgxokbxgY-4" value="&lt;font style=&quot;font-size: 24px&quot;&gt;$$t$$&lt;/font&gt;" style="ellipse;whiteSpace=wrap;html=1;aspect=fixed;strokeWidth=2;" vertex="1" parent="1">
          <mxGeometry x="270" y="360" width="50" height="50" as="geometry" />
        </mxCell>
        <mxCell id="bCQrRqBFHOmrgxokbxgY-5" value="&lt;font style=&quot;font-size: 24px&quot;&gt;$$x_2$$&lt;/font&gt;" style="ellipse;whiteSpace=wrap;html=1;aspect=fixed;strokeWidth=2;" vertex="1" parent="1">
          <mxGeometry x="470" y="182" width="50" height="50" as="geometry" />
        </mxCell>
        <mxCell id="bCQrRqBFHOmrgxokbxgY-6" value="&lt;font style=&quot;font-size: 24px&quot;&gt;$$x_3$$&lt;/font&gt;" style="ellipse;whiteSpace=wrap;html=1;aspect=fixed;strokeWidth=2;" vertex="1" parent="1">
          <mxGeometry x="470" y="340" width="50" height="50" as="geometry" />
        </mxCell>
        <mxCell id="bCQrRqBFHOmrgxokbxgY-7" value="" style="endArrow=none;html=1;rounded=0;fontSize=24;exitX=1;exitY=1;exitDx=0;exitDy=0;entryX=0;entryY=0;entryDx=0;entryDy=0;strokeWidth=2;" edge="1" parent="1" source="bCQrRqBFHOmrgxokbxgY-1" target="bCQrRqBFHOmrgxokbxgY-3">
          <mxGeometry width="50" height="50" relative="1" as="geometry">
            <mxPoint x="390" y="370" as="sourcePoint" />
            <mxPoint x="440" y="320" as="targetPoint" />
          </mxGeometry>
        </mxCell>
        <mxCell id="bCQrRqBFHOmrgxokbxgY-9" value="" style="endArrow=none;html=1;rounded=0;fontSize=24;entryX=0.5;entryY=1;entryDx=0;entryDy=0;exitX=0.5;exitY=0;exitDx=0;exitDy=0;strokeWidth=2;" edge="1" parent="1" source="bCQrRqBFHOmrgxokbxgY-4" target="bCQrRqBFHOmrgxokbxgY-1">
          <mxGeometry width="50" height="50" relative="1" as="geometry">
            <mxPoint x="390" y="370" as="sourcePoint" />
            <mxPoint x="440" y="320" as="targetPoint" />
          </mxGeometry>
        </mxCell>
        <mxCell id="bCQrRqBFHOmrgxokbxgY-11" value="" style="endArrow=none;html=1;rounded=0;fontSize=24;exitX=1;exitY=1;exitDx=0;exitDy=0;entryX=0;entryY=0;entryDx=0;entryDy=0;strokeWidth=2;" edge="1" parent="1" source="bCQrRqBFHOmrgxokbxgY-3" target="bCQrRqBFHOmrgxokbxgY-6">
          <mxGeometry width="50" height="50" relative="1" as="geometry">
            <mxPoint x="292.6776695296637" y="242.67766952966372" as="sourcePoint" />
            <mxPoint x="377.3223304703363" y="297.3223304703363" as="targetPoint" />
            <Array as="points" />
          </mxGeometry>
        </mxCell>
        <mxCell id="bCQrRqBFHOmrgxokbxgY-12" value="" style="endArrow=none;html=1;rounded=0;fontSize=24;exitX=0;exitY=1;exitDx=0;exitDy=0;entryX=1;entryY=0;entryDx=0;entryDy=0;strokeWidth=2;" edge="1" parent="1" source="bCQrRqBFHOmrgxokbxgY-5" target="bCQrRqBFHOmrgxokbxgY-3">
          <mxGeometry width="50" height="50" relative="1" as="geometry">
            <mxPoint x="412.6776695296637" y="332.6776695296637" as="sourcePoint" />
            <mxPoint x="487.3223304703363" y="367.3223304703363" as="targetPoint" />
            <Array as="points" />
          </mxGeometry>
        </mxCell>
        <mxCell id="bCQrRqBFHOmrgxokbxgY-13" value="" style="endArrow=none;html=1;rounded=0;fontSize=24;entryX=0.5;entryY=0;entryDx=0;entryDy=0;strokeWidth=2;" edge="1" parent="1" target="bCQrRqBFHOmrgxokbxgY-1">
          <mxGeometry width="50" height="50" relative="1" as="geometry">
            <mxPoint x="265" y="160" as="sourcePoint" />
            <mxPoint x="270" y="190" as="targetPoint" />
            <Array as="points">
              <mxPoint x="265" y="173" />
            </Array>
          </mxGeometry>
        </mxCell>
        <mxCell id="bCQrRqBFHOmrgxokbxgY-14" value="" style="endArrow=none;html=1;rounded=0;fontSize=24;entryX=0;entryY=0;entryDx=0;entryDy=0;strokeWidth=2;" edge="1" parent="1" target="bCQrRqBFHOmrgxokbxgY-1">
          <mxGeometry width="50" height="50" relative="1" as="geometry">
            <mxPoint x="200" y="160" as="sourcePoint" />
            <mxPoint x="280" y="200" as="targetPoint" />
            <Array as="points" />
          </mxGeometry>
        </mxCell>
        <mxCell id="bCQrRqBFHOmrgxokbxgY-15" value="" style="endArrow=none;html=1;rounded=0;fontSize=24;entryX=0;entryY=0.5;entryDx=0;entryDy=0;strokeWidth=2;" edge="1" parent="1" target="bCQrRqBFHOmrgxokbxgY-1">
          <mxGeometry width="50" height="50" relative="1" as="geometry">
            <mxPoint x="200" y="240" as="sourcePoint" />
            <mxPoint x="290" y="210" as="targetPoint" />
            <Array as="points" />
          </mxGeometry>
        </mxCell>
        <mxCell id="bCQrRqBFHOmrgxokbxgY-16" value="" style="endArrow=none;html=1;rounded=0;fontSize=24;entryX=0;entryY=0;entryDx=0;entryDy=0;strokeWidth=2;" edge="1" parent="1" target="bCQrRqBFHOmrgxokbxgY-5">
          <mxGeometry width="50" height="50" relative="1" as="geometry">
            <mxPoint x="450" y="160" as="sourcePoint" />
            <mxPoint x="477.3223304703366" y="182.00233047033663" as="targetPoint" />
            <Array as="points" />
          </mxGeometry>
        </mxCell>
        <mxCell id="bCQrRqBFHOmrgxokbxgY-17" value="" style="endArrow=none;html=1;rounded=0;fontSize=24;exitX=1;exitY=1;exitDx=0;exitDy=0;strokeWidth=2;" edge="1" parent="1" source="bCQrRqBFHOmrgxokbxgY-5">
          <mxGeometry width="50" height="50" relative="1" as="geometry">
            <mxPoint x="510" y="232" as="sourcePoint" />
            <mxPoint x="560" y="270" as="targetPoint" />
            <Array as="points" />
          </mxGeometry>
        </mxCell>
        <mxCell id="bCQrRqBFHOmrgxokbxgY-18" value="" style="endArrow=none;html=1;rounded=0;fontSize=24;exitX=1;exitY=0.5;exitDx=0;exitDy=0;strokeWidth=2;" edge="1" parent="1" source="bCQrRqBFHOmrgxokbxgY-6">
          <mxGeometry width="50" height="50" relative="1" as="geometry">
            <mxPoint x="522.6776695296633" y="242.67766952966326" as="sourcePoint" />
            <mxPoint x="560" y="365" as="targetPoint" />
            <Array as="points" />
          </mxGeometry>
        </mxCell>
        <mxCell id="bCQrRqBFHOmrgxokbxgY-19" value="" style="endArrow=none;html=1;rounded=0;fontSize=24;exitX=0.5;exitY=1;exitDx=0;exitDy=0;strokeWidth=2;" edge="1" parent="1" source="bCQrRqBFHOmrgxokbxgY-6">
          <mxGeometry width="50" height="50" relative="1" as="geometry">
            <mxPoint x="529.9999999999995" y="375" as="sourcePoint" />
            <mxPoint x="495" y="409" as="targetPoint" />
            <Array as="points" />
          </mxGeometry>
        </mxCell>
        <mxCell id="bCQrRqBFHOmrgxokbxgY-20" value="" style="endArrow=none;html=1;rounded=0;fontSize=24;exitX=0;exitY=1;exitDx=0;exitDy=0;entryX=1;entryY=0;entryDx=0;entryDy=0;strokeWidth=2;" edge="1" parent="1" source="bCQrRqBFHOmrgxokbxgY-3" target="bCQrRqBFHOmrgxokbxgY-4">
          <mxGeometry width="50" height="50" relative="1" as="geometry">
            <mxPoint x="539.9999999999995" y="376" as="sourcePoint" />
            <mxPoint x="580" y="376" as="targetPoint" />
            <Array as="points" />
          </mxGeometry>
        </mxCell>
        <mxCell id="bCQrRqBFHOmrgxokbxgY-21" value="&lt;font style=&quot;font-size: 14px&quot;&gt;$$a=1$$&lt;/font&gt;" style="text;html=1;align=center;verticalAlign=middle;resizable=0;points=[];autosize=1;strokeWidth=2;" vertex="1" parent="1">
          <mxGeometry x="308" y="238" width="70" height="20" as="geometry" />
        </mxCell>
        <mxCell id="bCQrRqBFHOmrgxokbxgY-22" value="&lt;font style=&quot;font-size: 14px&quot;&gt;$$a=\frac{1}{p}&amp;nbsp;$$&lt;/font&gt;" style="text;html=1;align=center;verticalAlign=middle;resizable=0;points=[];autosize=1;strokeWidth=2;" vertex="1" parent="1">
          <mxGeometry x="290" y="346" width="130" height="20" as="geometry" />
        </mxCell>
        <mxCell id="bCQrRqBFHOmrgxokbxgY-24" value="&lt;font style=&quot;font-size: 14px&quot;&gt;$$a=\frac{1}{q}&amp;nbsp;$$&lt;/font&gt;" style="text;html=1;align=center;verticalAlign=middle;resizable=0;points=[];autosize=1;strokeWidth=2;glass=1;" vertex="1" parent="1">
          <mxGeometry x="395" y="309" width="130" height="20" as="geometry" />
        </mxCell>
        <mxCell id="bCQrRqBFHOmrgxokbxgY-25" value="&lt;font style=&quot;font-size: 14px&quot;&gt;$$a=\frac{1}{p}&amp;nbsp;$$&lt;/font&gt;" style="text;html=1;align=center;verticalAlign=middle;resizable=0;points=[];autosize=1;strokeWidth=2;" vertex="1" parent="1">
          <mxGeometry x="396" y="254" width="130" height="20" as="geometry" />
        </mxCell>
      </root>
    </mxGraphModel>
  </diagram>
</mxfile>
